<svg width="1471.19" height="344.73" viewBox="0 0 1471.19 344.73" xmlns="http://www.w3.org/2000/svg" xmlns:xlink="http://www.w3.org/1999/xlink" overflow="hidden"><defs></defs><g><g><path d="M0 270.52 53.13 270.52 265.66 270.52 265.66 217.38 53.13 217.38 53.13 164.25 265.66 164.25 265.66 111.12 53.13 111.12 53.13 57.99 265.66 57.99 265.66 4.86 53.13 4.86 0 4.86Z" fill="#161616"/></g><g><path d="M360.17 79.21 360.17 96.69 369.84 96.69C380.25 83.67 396.62 74.38 423.39 74.38 473.97 74.38 504.46 117.15 504.46 174.79 504.46 233.17 473.59 275.2 423.39 275.2 396.99 275.2 381.74 266.27 371.7 252.89L362.03 252.89 362.03 344.74 309.97 344.74 309.97 79.21 360.17 79.21ZM360.17 174.78C360.17 204.9 374.3 232.05 406.66 232.05 437.9 232.05 452.4 206.39 452.4 174.78 452.4 143.17 437.9 117.88 406.66 117.88 374.3 117.89 360.17 144.66 360.17 174.78Z" fill="#161616"/><path d="M541.27 46.48 541.27 0 594.08 0 594.08 46.48 541.27 46.48ZM593.71 270.36 541.65 270.36 541.65 79.21 593.71 79.21 593.71 270.36Z" fill="#161616"/><path d="M777.16 270.36 777.16 162.14C777.16 135.36 764.14 120.49 739.97 120.49 713.57 120.49 697.57 143.17 697.57 168.83L697.57 270.35 645.51 270.35 645.51 79.21 695.71 79.21 695.71 96.69 705.38 96.69C716.91 81.81 734.39 74.38 758.56 74.38 806.53 74.38 829.22 103.76 829.22 152.85L829.22 270.36 777.16 270.36Z" fill="#161616"/><path d="M1061.27 174.78C1061.27 234.65 1023.34 275.19 962.35 275.19 902.11 275.19 863.43 234.65 863.43 174.78 863.43 114.91 902.1 74.38 962.35 74.38 1023.34 74.38 1061.27 114.91 1061.27 174.78ZM1009.2 174.78C1009.2 144.29 995.07 117.88 962.34 117.88 929.99 117.88 915.48 144.28 915.48 174.78 915.48 205.65 929.98 232.05 962.34 232.05 995.07 232.05 1009.2 205.65 1009.2 174.78Z" fill="#161616"/><path d="M1078 79.21 1131.18 79.21 1170.6 223.87 1186.59 223.87 1224.52 79.21 1277.7 79.21 1222.66 270.36 1132.29 270.36 1078 79.21Z" fill="#161616"/><path d="M1423.22 253.99 1413.55 253.99C1402.02 267.38 1385.29 275.19 1360 275.19 1316.86 275.19 1292.32 245.44 1292.32 211.6 1292.32 181.85 1313.52 148.01 1370.04 148.01L1420.99 148.01 1420.99 143.18C1420.99 123.47 1409.83 113.43 1387.15 113.43 1366.32 113.43 1356.28 120.87 1354.8 133.88L1303.11 133.88C1304.23 97.06 1338.44 74.38 1384.55 74.38 1436.24 74.38 1471.2 94.83 1471.2 146.15L1471.2 270.36 1423.23 270.36 1423.23 253.99ZM1420.98 193.75 1420.98 181.85 1380.07 181.85C1357.76 181.85 1344.37 190.03 1344.37 207.51 1344.37 224.99 1357.01 233.91 1378.21 233.91 1403.51 233.91 1420.98 217.55 1420.98 193.75Z" fill="#161616"/></g></g></svg>